<?xml version="1.0" encoding="iso-8859-1"?>
<!-- Generator: Adobe Illustrator 19.0.0, SVG Export Plug-In . SVG Version: 6.00 Build 0)  -->
<svg version="1.1" id="Capa_1" xmlns="http://www.w3.org/2000/svg" xmlns:xlink="http://www.w3.org/1999/xlink" x="0px" y="0px"
	 viewBox="0 0 448 448" style="enable-background:new 0 0 448 448;" xml:space="preserve">
<g>
	<path style="fill:#878787;" d="M48,104h-8V40h64v8C104,79.406,79.406,104,48,104z"/>
	<path style="fill:#878787;" d="M440,280h-64v-8c0-31.406,24.594-56,56-56h8V280z"/>
	<path style="fill:#878787;" d="M440,104h-8c-31.406,0-56-24.594-56-56v-8h64V104z"/>
</g>
<path style="fill:#EEEDED;" d="M376,280H151.953l-1.359-6.297C143.203,239.734,114.172,216,80,216c-10.141,0-20.594,3.031-29.469,6
	L40,225.516V104h8c30.875,0,56-25.125,56-56v-8h272v8c0,30.875,25.125,56,56,56h8v112h-8c-30.875,0-56,25.125-56,56V280z"/>
<path style="fill:#CCCBCB;" d="M240,233.147c-31.088,0-54.861-32.916-54.861-73.147S208.912,86.853,240,86.853
	s54.861,32.916,54.861,73.147S271.088,233.147,240,233.147z"/>
<g>
	<path style="fill:#FACE59;" d="M80,360c-39.703,0-72-32.297-72-72s32.297-72,72-72c35.282,0,64.844,25.047,70.313,59.547
		l1.031,6.578l-6.266,2.218C120.89,292.875,104,317.422,104,344v10.547l-5.453,1.828C93.484,358.078,87.766,360,80,360z"/>
	<path style="fill:#FACE59;" d="M168,408c-34.687,0-64-29.313-64-64s29.313-64,64-64s64,29.313,64,64S202.687,408,168,408z"/>
</g>
<path style="fill:#489E60;" d="M389.934,160c0,13.16-8.774,21.934-21.934,21.934S346.066,173.16,346.066,160
	s8.774-21.934,21.934-21.934S389.934,146.84,389.934,160z"/>
<g>
	<path style="fill:#010101;" d="M336,160c0,17.6,14.4,32,32,32s32-14.4,32-32s-14.4-32-32-32S336,142.4,336,160z M384,160
		c0,9.6-6.4,16-16,16s-16-6.4-16-16s6.4-16,16-16S384,150.4,384,160z"/>
	<path style="fill:#010101;" d="M112,128c-17.6,0-32,14.4-32,32s14.4,32,32,32s32-14.4,32-32S129.6,128,112,128z M112,176
		c-9.6,0-16-6.4-16-16s6.4-16,16-16s16,6.4,16,16S121.6,176,112,176z"/>
	<path style="fill:#010101;" d="M240,80c-35.2,0-64,35.2-64,80s28.8,80,64,80s64-35.2,64-80S275.2,80,240,80z M240,224
		c-27.2,0-48-28.8-48-64s20.8-64,48-64s48,28.8,48,64S267.2,224,240,224z"/>
	<path style="fill:#010101;" d="M448,32H32v192c-19.2,14.4-32,36.8-32,64c0,44.8,35.2,80,80,80c6.4,0,12.8-1.6,19.2-3.2
		C108.8,393.6,136,416,168,416c40,0,72-32,72-72c0-22.4-11.2-43.2-27.2-56H448V32z M48,48h48c0,27.2-20.8,48-48,48V48z M96,348.8
		c-4.8,1.6-9.6,3.2-16,3.2c-35.2,0-64-28.8-64-64s28.8-64,64-64c32,0,57.6,22.4,62.4,52.8C115.2,286.4,96,313.6,96,344
		C96,345.6,96,347.2,96,348.8z M224,344c0,30.4-25.6,56-56,56s-56-25.6-56-56s25.6-56,56-56S224,313.6,224,344z M432,272h-48
		c0-27.2,20.8-48,48-48V272z M432,208c-35.2,0-64,28.8-64,64H158.4c-8-36.8-40-64-78.4-64c-11.2,0-22.4,3.2-32,6.4V112
		c35.2,0,64-28.8,64-64h256c0,35.2,28.8,64,64,64V208z M432,96c-27.2,0-48-20.8-48-48h48V96z"/>
</g>
<g>
</g>
<g>
</g>
<g>
</g>
<g>
</g>
<g>
</g>
<g>
</g>
<g>
</g>
<g>
</g>
<g>
</g>
<g>
</g>
<g>
</g>
<g>
</g>
<g>
</g>
<g>
</g>
<g>
</g>
</svg>
