<svg height="512pt" viewBox="0 0 512 512" width="512pt" xmlns="http://www.w3.org/2000/svg" xmlns:xlink="http://www.w3.org/1999/xlink"><linearGradient id="a" gradientUnits="userSpaceOnUse" x1="0" x2="512" y1="256" y2="256"><stop offset="0" stop-color="#00f38d"/><stop offset="1" stop-color="#009eff"/></linearGradient><path d="m512 256c0 141.386719-114.613281 256-256 256s-256-114.613281-256-256 114.613281-256 256-256 256 114.613281 256 256zm0 0" fill="url(#a)"/><g fill="#fff"><path d="m418.902344 181.160156c0-17.082031-11.277344-31.582031-26.78125-36.441406-1.085938-20.089844-17.769532-36.101562-38.125-36.101562-9.234375 0-17.984375 3.335937-24.789063 9.144531-4.769531-2.085938-9.957031-3.183594-15.300781-3.183594-9.527344 0-18.433594 3.449219-25.300781 9.550781-3.339844-.9375-6.8125-1.421875-10.332031-1.421875-1.265626 0-2.515626.0625-3.761719.183594-7.105469-8.90625-17.933594-14.273437-29.796875-14.273437-3.480469 0-6.910156.472656-10.207032 1.390624-6.863281-10.480468-18.703124-17.296874-31.960937-17.296874-18.261719 0-33.570313 12.886718-37.308594 30.046874-13.742187.679688-25.695312 8.632813-31.84375 20.277344-.703125-.035156-1.40625-.054687-2.117187-.054687-21.050782 0-38.179688 17.128906-38.179688 38.179687 0 13.171875 6.617188 24.902344 16.957032 31.78125-.695313 2.894532-1.046876 5.890625-1.046876 8.945313 0 17.769531 12.203126 32.742187 28.671876 36.980469l17.253906 126.699218c2.605468 19.222656 19.203125 33.71875 38.601562 33.71875h124.242188c19.394531 0 35.988281-14.488281 38.597656-33.695312l17.289062-126.570313c16.796876-4.003906 29.332032-19.128906 29.332032-37.132812 0-3.054688-.355469-6.050781-1.046875-8.945313 10.335937-6.878906 16.953125-18.609375 16.953125-31.78125zm-177.039063 79.679688v131.449218h-16.011719l-9.183593-131.449218zm27 0h25.832031l-9.183593 131.449218h-16.648438zm-87.175781 121.09375-16.492188-121.09375h24.410157l9.183593 131.449218h-5.253906c-5.953125 0-11.046875-4.449218-11.847656-10.355468zm147.933594.011718c-.800782 5.898438-5.894532 10.34375-11.84375 10.34375h-5.199219l9.183594-131.445312h24.402343zm56.296875-189.15625c-2.113281.9375-3.773438 2.664063-4.613281 4.816407l-4.917969 12.582031c-.847657 2.167969-.78125 4.570312.136719 6.707031.621093 1.445313 1.0625 3.21875 1.011718 5.316407-.125 5.328124-3.785156 9.882812-8.632812 11.628906h-225.886719c-4.847656-1.730469-8.421875-6.226563-8.550781-11.628906-.042969-1.738282.253906-3.257813.710937-4.546876 1-2.828124 1.054688-5.90625-.039062-8.699218l-3.964844-10.144532c-1.09375-2.796874-3.226563-5.011718-5.882813-6.414062-4.535156-2.398438-7.34375-7.425781-6.625-12.960938.824219-6.390624 6.183594-11.019531 12.628907-11.011718.558593 0 1.113281.039062 1.660156.109375 2.785156.367187 5.613281-.085938 8.058594-1.46875l9.0625-5.121094c2.386719-1.347656 4.285156-3.433594 5.335937-5.964844 1.921875-4.636719 6.492188-7.828125 11.75-7.828125h.058594c4.402344.011719 8.667969-1.546875 12.027344-4.390625l7.59375-6.429687c1.894531-1.605469 2.984375-3.964844 2.980468-6.449219 0-7.019531 5.710938-12.726563 12.730469-12.726563 4.585938 0 8.664063 2.445313 10.902344 6.160157 2.121094 3.523437 5.246094 6.328125 9.09375 7.78125l6.308594 2.382812c3.871093 1.464844 8.101562 1.40625 12.050781.167969 1.222656-.386719 2.503906-.585938 3.808594-.585938 4.371094 0 8.320312 2.1875 10.640625 5.738282 1.097656 1.683594 2.730469 2.953125 4.585937 3.730468l5.367188 2.25c4.027344 1.691407 8.367187 2.449219 12.738281 2.375.074219 0 .148437-.003906.226563-.003906.988281 0 1.960937.117188 2.910156.335938 3.988281.9375 8.15625.777344 12.152344-.132813l6.660156-1.511719c1.6875-.382812 3.242187-1.246093 4.386718-2.542968 2.394532-2.710938 5.820313-4.277344 9.523438-4.277344 2.382812 0 4.675781.65625 6.664062 1.882812 1.683594 1.042969 3.65625 1.527344 5.617188 1.238282l13.175781-1.957032c1.988281-.292968 3.769531-1.324218 5.101563-2.828124 3.113281-3.515626 8.035156-5.160157 12.917968-3.84375 5.101563 1.375 8.851563 5.914062 9.292969 11.179687.074219.859375.058594 1.714844-.035156 2.554687-.261719 2.265626.378906 4.539063 1.78125 6.339844l9.683594 12.472656c.671875.867188 1.710937 1.347657 2.804687 1.367188h.078125c6.398438.152344 11.824219 5.136719 12.40625 11.515625.515625 5.648437-2.625 10.691406-7.476562 12.835937zm0 0"/><path d="m258.546875 173.390625h-6.363281c-7.265625-7.273437-17.0625-11.457031-27.371094-11.457031-21.480469 0-38.957031 17.476562-38.957031 38.957031h27c0-6.59375 5.363281-11.957031 11.957031-11.957031 3.867188 0 7.558594 2.054687 9.875 5.496094l4.011719 5.960937h19.847656c6.589844 0 11.953125 5.359375 11.953125 11.953125h27c0-21.480469-17.476562-38.953125-38.953125-38.953125zm0 0"/></g></svg>